<svg width="13" height="13" viewBox="0 0 13 13" fill="none" xmlns="http://www.w3.org/2000/svg">
<g clip-path="url(#clip0_13036_262)">
<rect width="12.6943" height="12.6943" rx="6.34717" fill="url(#paint0_linear_13036_262)"/>
<path d="M6.49059 5.1239C6.18888 5.44468 5.90005 5.86175 5.63916 6.24642L5.55175 6.37509C5.31616 6.72338 5.10363 7.03751 4.90131 7.27666C4.78906 7.40976 4.695 7.50028 4.61913 7.55529C4.59282 7.57618 4.5633 7.59266 4.53172 7.6041C4.4492 7.60188 4.31032 7.53754 4.21094 7.3858C4.27749 7.59655 4.4665 8.01761 4.86094 8.01761C5.33124 8.01761 6.06022 7.20522 6.28561 6.87379L6.37346 6.74468C6.63967 6.35246 6.89124 5.99308 7.13704 5.73175C7.40059 5.45178 7.56386 5.38612 7.6424 5.38612C7.83851 5.38612 8.04171 5.46731 8.20676 5.68028C8.22096 5.51878 8.16639 5.14298 7.83673 4.93045C7.50752 4.71748 6.7923 4.80311 6.49059 5.1239Z" fill="#CFDEFF"/>
<path fill-rule="evenodd" clip-rule="evenodd" d="M3.71203 5.13758C4.04613 4.7072 4.50845 4.5 4.97786 4.5C5.45438 4.5 5.84527 4.82256 6.12967 5.12515C6.19001 5.18934 6.24976 5.25693 6.30892 5.32792C6.36808 5.25693 6.42783 5.18934 6.48817 5.12515C6.77257 4.82256 7.1639 4.5 7.63997 4.5C8.10939 4.5 8.57171 4.7072 8.90581 5.13758C9.23369 5.55996 9.41471 6.16559 9.41471 6.94027C9.41471 7.78416 8.83393 8.49316 8.08366 8.49316C7.84274 8.49316 7.63731 8.3889 7.48113 8.27576C7.32185 8.1604 7.17499 8.00866 7.041 7.85071C6.80585 7.57252 6.56448 7.21535 6.33465 6.87505L6.2468 6.74593C6.09189 6.5139 5.93017 6.28649 5.76186 6.06399L5.63674 6.24767L5.54933 6.37634C5.31373 6.72464 5.10121 7.03876 4.89889 7.27791C4.78664 7.41102 4.69258 7.50153 4.61671 7.55655C4.5904 7.57743 4.56088 7.59392 4.5293 7.60535C4.44677 7.60313 4.3079 7.5388 4.20852 7.38706C4.27507 7.59781 4.46408 8.01886 4.85851 8.01886C5.32838 8.01886 6.05513 7.20958 6.28185 6.87726C6.05247 7.21668 5.81155 7.57296 5.5764 7.85071C5.44329 8.00866 5.29599 8.1604 5.13715 8.27531C4.98053 8.3889 4.7751 8.49316 4.53418 8.49316C3.78391 8.49316 3.20312 7.78416 3.20312 6.94027C3.20312 6.16559 3.38415 5.56041 3.71203 5.13758ZM5.76186 6.06399C5.67442 5.94919 5.58143 5.83873 5.48322 5.733C5.21967 5.45304 5.05595 5.38737 4.97786 5.38737C4.78176 5.38737 4.57855 5.46856 4.4135 5.68153C4.24224 5.90249 4.09049 6.29515 4.09049 6.94027C4.09049 7.42167 4.38998 7.60136 4.5293 7.60579C4.56091 7.59422 4.59043 7.57759 4.61671 7.55655C4.69258 7.50153 4.78664 7.41057 4.89889 7.27791C5.10121 7.03832 5.31373 6.72464 5.54933 6.37634L5.63674 6.24767L5.76186 6.06399ZM6.30892 5.32792C6.54585 5.61143 6.77257 5.9402 6.9811 6.24767L7.06851 6.37634C7.3041 6.72464 7.51663 7.03876 7.71895 7.27791C7.8312 7.41102 7.92526 7.50153 8.00113 7.55655C8.05438 7.59515 8.08233 7.60402 8.08854 7.60535C8.22786 7.60136 8.52734 7.42211 8.52734 6.94027C8.52734 6.29515 8.3756 5.90204 8.20434 5.68153C8.21854 5.52003 8.16397 5.14423 7.83431 4.93171C7.50509 4.71874 6.78987 4.80437 6.48817 5.12515C6.42783 5.18934 6.36808 5.25693 6.30892 5.32792Z" fill="white"/>
<g filter="url(#filter0_f_13036_262)">
<ellipse cx="10.5471" cy="0.627033" rx="4.51417" ry="2.59898" transform="rotate(32.9406 10.5471 0.627033)" fill="#00ABF4" fill-opacity="0.52"/>
</g>
<g filter="url(#filter1_f_13036_262)">
<ellipse cx="3.19552" cy="13.3214" rx="4.51417" ry="2.59898" transform="rotate(32.9406 3.19552 13.3214)" fill="#00ABF4" fill-opacity="0.52"/>
</g>
</g>
<rect x="0.167031" y="0.167031" width="12.3603" height="12.3603" rx="6.18014" stroke="url(#paint1_linear_13036_262)" stroke-width="0.334061"/>
<defs>
<filter id="filter0_f_13036_262" x="3.29301" y="-5.86324" width="14.5077" height="12.9814" filterUnits="userSpaceOnUse" color-interpolation-filters="sRGB">
<feFlood flood-opacity="0" result="BackgroundImageFix"/>
<feBlend mode="normal" in="SourceGraphic" in2="BackgroundImageFix" result="shape"/>
<feGaussianBlur stdDeviation="1.6035" result="effect1_foregroundBlur_13036_262"/>
</filter>
<filter id="filter1_f_13036_262" x="-4.05855" y="6.8311" width="14.5077" height="12.9814" filterUnits="userSpaceOnUse" color-interpolation-filters="sRGB">
<feFlood flood-opacity="0" result="BackgroundImageFix"/>
<feBlend mode="normal" in="SourceGraphic" in2="BackgroundImageFix" result="shape"/>
<feGaussianBlur stdDeviation="1.6035" result="effect1_foregroundBlur_13036_262"/>
</filter>
<linearGradient id="paint0_linear_13036_262" x1="12.6943" y1="6.34717" x2="0.479869" y2="6.8697" gradientUnits="userSpaceOnUse">
<stop stop-color="#004A9F"/>
<stop offset="0.340524" stop-color="#043691"/>
<stop offset="0.71111" stop-color="#043691"/>
<stop offset="1" stop-color="#004A9F"/>
</linearGradient>
<linearGradient id="paint1_linear_13036_262" x1="0" y1="6.34717" x2="12.6943" y2="6.34717" gradientUnits="userSpaceOnUse">
<stop stop-color="#BFE3FF"/>
<stop offset="1" stop-color="#0066FF"/>
</linearGradient>
<clipPath id="clip0_13036_262">
<rect width="12.6943" height="12.6943" rx="6.34717" fill="white"/>
</clipPath>
</defs>
</svg>